<?xml version="1.0" encoding="utf-8"?>
<!-- Generator: Adobe Illustrator 23.0.5, SVG Export Plug-In . SVG Version: 6.00 Build 0)  -->
<svg version="1.1" id="Capa_1" xmlns="http://www.w3.org/2000/svg" xmlns:xlink="http://www.w3.org/1999/xlink" x="0px" y="0px"
	 viewBox="0 0 1000 320" style="enable-background:new 0 0 1000 320;" xml:space="preserve">
<style type="text/css">
	.st0{fill:#17110D;}
	.st1{fill:none;}
	.st2{fill:#F39932;}
	.st3{fill:#FEFDFD;}
</style>
<path class="st0" d="M432.5,113c0.7-10.8,1.8-22.4-1.3-33c-3.3-11.3-17.4-26-29.8-26.9c-17.5-1.3-32.8,18-37.3,32.9
	c-3,10-4.6,21.9-17.7,22c-2,0-4.1-0.1-6-0.9c-9.9-3.8-6-18-6-26.1V27c0-7.1,1-16.4-5.1-21.6c-5.7-4.8-14.2-3-20.9-2.5
	c-14.8,1-30.2,0.7-45,1.1c-59.9,1.5-120.1,0-180,0h-50C26.6,4,18,2.5,13,8.2C7,15,8.4,25.7,8.4,34c0,19.1-1,37.9-1,57
	c0,74.9-1,150-1,225h80h23c3.4,0,7.6,0.6,10.8-0.7c7.8-3.3,10.6-15.8,10.1-23.3c-1-17.2-21-19.5-33-25.8c-5.1-2.7-11.3-8-7.4-14.2
	c6.1-9.7,17.4-10.1,27.4-11.4c21.3-2.8,46.4-5.4,67,2.1c6.8,2.5,17.4,7.4,20.6,14.3c3,6.6-5.9,11.8-10.6,14.2
	c-13,6.5-33.9,15.3-24.6,33.8c1.2,2.4,2.7,4.7,4.8,6.4c5.3,4.5,12.4,3.6,18.8,3.6h41c23,0,46-1,69-1c9.2,0,20.9,1.3,27.2-7
	c6.8-9,4.8-24.3,4.8-35v-82v-20c0-3.5-0.5-7.6,0.7-11c2.2-5.7,8.8-10.2,14.3-12.5c8.3-3.4,15.5,2.9,19.9,9.5
	c8.5,12.7,16.6,33.5,36.1,24.4c15.4-7.2,24.1-28.4,25.8-44.4C433,128.4,432,120.6,432.5,113z"/>
<g>
	<path class="st1" d="M53,188.2c-3.7-0.5-7.3-0.9-10.9-1.3c0,0,0,0,0,0C45.7,187.4,49.4,187.8,53,188.2z"/>
	<path class="st2" d="M427.9,92c-0.6-5.4-0.6-10.2-3-15.3c-3.7-8-15.8-20.8-25.5-20.5c-13.9,0.5-26.2,16-30.5,27.8
		c-2.4,6.4-2.4,13.9-6.6,19.6c-6.6,8.8-22.3,11.7-30.4,2.9c-5.6-6-3.1-15.3-2.6-22.5c1.2-17.2,0.1-34.8,0.1-52
		c0-7.1,2.3-21.8-6.1-25.3c-5.5-2.3-14-0.7-19.9-0.7c-16.4,0-32.6,1-49,1c-58.2,0-115.9,1-174,1h-47c-5.1,0-13.6-1.6-17.5,2.4
		c-4.1,4.2-3.4,14.8-3.3,16.6c0,0,0,0,0.8,0c69.1,0,133.8,29.4,183,77.3c7.3,7.1,15.4,15.3,21.5,22.7c5.3,6.4,15.9,20.1,25.5,36
		c0,0,0,0,2.7-0.5c0.5-0.1,1-0.2,1.4-0.3c0,0,0,0,0,0c0.5-0.1,0.9-0.2,1.4-0.3c0,0,0.1,0,0.1,0c0.9-0.2,1.8-0.5,2.6-0.8
		c0.1,0,0.1,0,0.2-0.1c0.8-0.3,1.6-0.7,2.4-1.1c0.1,0,0.1-0.1,0.2-0.1c0.4-0.2,0.7-0.4,1.1-0.6c0,0,0,0,0,0c0.3-0.2,0.7-0.4,1-0.7
		c0.1,0,0.1-0.1,0.2-0.1c0.3-0.2,0.6-0.5,0.9-0.8c0,0,0.1-0.1,0.1-0.1c0.3-0.2,0.5-0.5,0.7-0.8c0-0.1,0.1-0.1,0.1-0.2
		c0.3-0.3,0.5-0.6,0.7-0.9c0-0.1,0.1-0.1,0.1-0.2c0.2-0.3,0.4-0.6,0.5-0.9c0-0.1,0.1-0.1,0.1-0.2c0.2-0.3,0.3-0.7,0.5-1.1
		c0-0.1,0.1-0.2,0.1-0.3c0.1-0.3,0.2-0.7,0.3-1.1c0,0,0-0.1,0-0.1c0.1-0.4,0.2-0.8,0.2-1.2c0-0.1,0-0.2,0-0.3
		c0.1-0.4,0.1-0.9,0.1-1.4c0.4-0.2,0.8-0.5,1.2-0.8c0.1-0.1,0.2-0.2,0.4-0.3c0.2-0.2,0.4-0.4,0.7-0.6c0.1-0.1,0.3-0.3,0.4-0.5
		c0.2-0.2,0.3-0.4,0.5-0.6c0.1-0.2,0.3-0.4,0.4-0.6c0.1-0.2,0.2-0.4,0.3-0.6c0.8-1.4,1.4-3,1.9-4.7c0,0,0,0,0,0
		c0.4-1.8,0.7-3.7,1.1-5.2c0.1-0.6,0.3-1.2,0.4-1.8c0.3-2.1,0.6-4.2,1-6.1c0,0,0,0,0,0c0.1-0.5,0.2-0.9,0.3-1.3c0-0.1,0-0.2,0.1-0.3
		c0.1-0.5,0.2-0.9,0.3-1.3c0.3-1.1,0.6-2.4,1-3.6c0-0.1,0-0.2,0.1-0.2c0.1-0.4,0.2-0.8,0.3-1.2c0,0,0-0.1,0-0.1
		c1.4-5.4,2.8-11.6,2.7-17c0,0,0,0,0,0c-0.1-1.5-0.2-2.9-0.5-4.3c0,0,0,0,0,0c-2.3-10.6-13.8-19.1-21.3-25.9
		c-3-2.7-6.5-6.6-10.2-8.2c-2.9-1.2-5.9-0.3-8.9-0.5c-3.8-0.2-7.3-1.8-11-2.3c-2.2-0.3-4.6,0.4-6.7-0.3c-4.1-1.4-6.9-6.3-10.3-8.9
		c-4.3-3.2-10.7-5.5-16-6.4c1.4-4.7,7-3.4,9-7.3c1.4-2.8-1.5-7.7-2-10.7h12l-2-14c5.6,1.6,9.8,6.3,14,10.2
		c8.3,7.6,20.2,13.8,22,25.8c12.5-3.6,31.2-10.4,44-4.3c7.7,3.7,11,11.8,13.8,19.3c6.7,18.2,8.2,38.8,8.2,58c-10.6-3-13.8,6.7-22,11
		c0-7.4-0.4-14.7,1-22c-8.4,7.7-5.9,17.3-8.4,27c-1.3,5.1-5.1,9.8-0.6,14c-1.8,2.6-4.3,5-5.4,8c-0.8,2.2-0.2,5.4-2.2,7
		c-1.8,1.5-5.2,1.2-7.4,1.5c-0.3,0-0.5,0.1-0.8,0.1c-0.1,0-0.2,0-0.2,0c-0.2,0-0.5,0.1-0.7,0.1c-0.1,0-0.1,0-0.2,0
		c-0.3,0-0.6,0.1-1,0.1c0,0-0.1,0-0.1,0c-0.3,0-0.6,0.1-0.9,0.1c-0.1,0-0.2,0-0.3,0c-0.3,0-0.6,0.1-1,0.1c0,0-0.1,0-0.1,0
		c-0.4,0-0.7,0.1-1.1,0.1c-0.1,0-0.1,0-0.2,0c-0.3,0-0.6,0-0.9,0.1c-0.1,0-0.2,0-0.3,0c-0.8,0-1.6,0.1-2.3,0.1c-0.1,0-0.2,0-0.3,0
		c-0.3,0-0.7,0-1,0c-0.1,0-0.1,0-0.2,0c-0.4,0-0.8,0-1.2-0.1c0,0-0.1,0-0.1,0c-0.3,0-0.7-0.1-1-0.1c-0.1,0-0.2,0-0.3,0
		c-0.4,0-0.7-0.1-1.1-0.1c0,0,0,0-0.1,0c-0.4-0.1-0.7-0.1-1.1-0.2c-0.1,0-0.1,0-0.2,0c-0.3-0.1-0.6-0.1-0.9-0.2
		c2.5,2.7,17,26.5,23.5,40.6c15,32.3,28,66.2,36,101c6.2,0,13.4,0.6,18.8-3.1c3.6-2.5,4.7-6.9,5.5-10.9c1.6-9.1,0.8-18.8,0.8-28v-82
		c0-9.2-2.9-24.3,2.7-32c6.9-9.5,21.6-17,32.3-9.4c10.5,7.5,13.8,27,27,30.5c16.1,4.3,25.2-9.2,30.3-22.1
		C430.2,133.9,430,111.8,427.9,92z"/>
	<path class="st2" d="M279.4,54c1.7,9.1,1,23.9,12,26C290.3,71.5,287.7,58.2,279.4,54z"/>
	<path class="st2" d="M274.4,49c-6,0-12.1-0.4-18,1c5.2,2.2,12.4,1,18,1V49z"/>
	<path class="st2" d="M276.4,71l-4-13l-12,1C263.4,64.5,270.8,68.3,276.4,71z"/>
	<path class="st2" d="M251.2,194c-2.3-4-3.9-8.2-7.2-11.5c-0.3,0.4-0.6,0.7-0.9,0.9c-1.4,2.4-4.5,1.3-7.5,0.8
		c-7.6-1.3-14.8-3.8-21-8.5c-7.3-5.5-14.2-13-23-16c-18.1-6.1-41.6-4.5-56.3-18.7c-10.8-10.4-17.2-32.3,0.3-38.8
		c7.1-2.6,14.8-3,22-5.2c-2-4.2-5.5-7.1-8-11c-2.7-4.3-4.6-9.8-8.4-13.2c-6.2-5.6-16-9.5-23.5-12.9C97,50.3,76.1,43.5,53.6,39.2
		c-5-1-8.4-1.5-12-2c-8.1-1.1-20.8-2-29.1-2L11.4,177c9.8,4.7,19.8,8.1,30.7,9.8c3.6,0.5,7.3,0.9,10.9,1.3c6.5,0.7,13,1.4,19.4,3.3
		c7.8,2.3,13.7,6.8,12.9,15.5c-0.9,9.5-9.9,13.3-13.9,21c6.3,2.9,16.3,8,12.3,16.8c-1.5,3.3-6,4.3-9.3,4.9c-7,1.3-19-0.2-24.6,4.9
		c-2.4,2.2-2.8,5.5-3.8,8.4c-2,5.8-3.9,11.8-7.2,17c-2.4,3.7-7.6,6.8-8.8,11.1c-1,3.5,1.6,7.3,1.2,10.9c-0.9,9.2-8.5,10-15.9,10
		c0,0,0,0,0,0c8.3,0,24.4,0,31.1,0h49c6,0,17.4,2.2,22.7-1c5.5-3.4,8.2-13.9,7.9-20c-0.4-7-5.7-11.1-11.4-14.1
		c-9.9-5.2-25.5-6.2-30.6-17.9c-3.1-7.1,7-16.1,12.5-19c5.7-3,12.8-2.6,19-3.3c13.1-1.6,26.8-3.6,40-3.1c16.2,0.6,31.3,4.1,45,13
		c5.1,3.3,12.3,9.5,9,16.4c-5.8,11.8-21.6,13.1-30.9,20.5c-7.2,5.7-8.6,15.2-2.8,22.4c7,8.8,22.1,5,31.8,5c29.5,0,58.8-1,88.2-1
		c-7.2-31.4-18.9-61.7-32-91C259.8,210.5,255.9,202.1,251.2,194z"/>
</g>
<g>
	<path class="st3" d="M72.4,191.5c-10-3-20.2-3.1-30.3-4.7c-10.9-1.7-20.8-5.2-30.7-9.8l-1,135c8.5,0,19.7,1.3,20.8-10
		c0.4-3.7-2.2-7.4-1.2-10.9c1.2-4.2,6.4-7.4,8.8-11.1c3.3-5.2,5.2-11.2,7.2-17c1-2.9,1.4-6.3,3.8-8.4c5.6-5.1,17.5-3.6,24.6-4.9
		c3.2-0.6,7.8-1.6,9.3-4.9c4-8.8-5.9-13.9-12.3-16.8c4-7.7,13-11.5,13.9-21C86.1,198.3,80.2,193.9,72.4,191.5z"/>
	<path class="st3" d="M269.4,209c-6.5-14.1-21-37.9-23.5-40.6c-0.2-0.1-3.8-1.1-8.3-4.4l5.8-1c-9.6-15.9-20.2-29.5-25.5-36
		c-6.2-7.5-14.2-15.7-21.5-22.7C149,58.2,87.4,28.7,21.2,27.1c-2.8-0.1-5.2-0.2-8.5-0.1c-0.1,3,0,5.9-0.1,8.2
		c4.4,0,12.7,0.5,17.2,0.8c10.8,1,14.3,1.3,23.9,3.2c22.5,4.3,43.3,11.1,64.1,20.6c7.6,3.5,17.3,7.3,23.5,12.9
		c3.8,3.4,5.7,9,8.4,13.2c2.5,3.9,6,6.8,8,11c-7.2,2.2-14.9,2.5-22,5.2c-17.5,6.6-11.1,28.4-0.3,38.8c14.7,14.2,38.2,12.6,56.3,18.7
		c8.8,3,15.7,10.5,23,16c6.2,4.7,13.4,7.3,21,8.5c3.5,0.6,7.1,2,8-2.2c3.6,3.4,5.1,7.8,7.6,12c4.7,8.1,8.6,16.4,12.4,25
		c13.1,29.3,24.8,59.6,32,91l9.8,0C297.4,275.2,284.4,241.3,269.4,209z"/>
	<path class="st3" d="M270.4,266c0.1-5.4-1.7-10.6-2-16c-6.3,1.1-9.4,7.2-14,11.1c-5.2,4.3-11.9,6.4-16.4,11.7
		c-4,4.6-5.4,13.3-5.6,19.3l7-1c-0.7,1.6-0.8,1.8-2,3v2c3.3,2.9,6,6.8,10,8.8c11.8,5.8,24.1-7.1,33-12.8v-2c-2.7-0.9-6.3-1.3-8.7-3
		C264.8,282.2,270.2,272.3,270.4,266z"/>
</g>
<g>
	<g>
		<path d="M508,127.7l-3.9,14.8h-17.9l19.2-60.7h23.2l20.4,60.7h-18.9l-4.5-14.8H508z M523,115.3l-3.2-10.7
			c-1.1-3.4-2.3-7.8-3.4-11.3h-0.2c-1,3.5-1.9,7.9-2.9,11.4l-2.9,10.6H523z"/>
		<path d="M559.2,125.6c4,2,10.5,4.2,17.5,4.2c5.7,0,8.5-1.8,8.5-4.9c0-2.6-2.8-4.3-10.2-6.4c-10.3-2.9-18.9-8.2-18.9-18.7
			c0-11,9.9-19.1,25.6-19.1c8.3,0,13.9,1.4,18.5,3.4l-3.9,13.3c-2.9-1.2-8-3.1-14.9-3.1c-5,0-7.9,1.6-7.9,4.2
			c0,3.2,3.9,4.3,11.8,6.8c11.8,3.8,17.4,9.4,17.4,18.6c0,10.2-8,19.5-27.4,19.5c-8,0-15.8-2.2-19.7-4.1L559.2,125.6z"/>
		<path d="M612.3,82.7c4.7-0.7,11.5-1.4,22.2-1.4c9.1,0,15.5,1.8,19.7,4.9c4.2,3,7.4,8.4,7.4,14.9c0,5.9-2,11.3-5.9,14.8
			c-5.2,4.6-12.6,6.7-22,6.7c-1.9,0-3.5-0.2-4.6-0.3v20.2h-16.8V82.7z M629.1,109.4c1,0.2,2.3,0.3,4.4,0.3c6.6,0,11.3-3,11.3-8.5
			c0-4.4-3.3-7.3-10.1-7.3c-2.9,0-4.7,0.2-5.6,0.4V109.4z"/>
		<path d="M687.7,127.7l-3.9,14.8h-17.9l19.2-60.7h23.2l20.4,60.7h-18.9l-4.5-14.8H687.7z M702.7,115.3l-3.2-10.7
			c-1.1-3.4-2.3-7.8-3.4-11.3h-0.2c-1,3.5-1.9,7.9-2.9,11.4l-2.9,10.6H702.7z"/>
		<path d="M737,82.7c5.8-0.9,13.5-1.4,21.3-1.4c12.8,0,20.6,1.9,27.3,6.1c7.1,4.5,12.1,11.9,12.1,22.9c0,12.6-5.2,20.2-11.2,24.7
			c-7.5,5.7-18.7,8.1-31.5,8.1c-9,0-14.7-0.5-18-1.1V82.7z M754,130c1,0.2,2.7,0.2,4,0.2c12.4,0.2,21.5-5.7,21.5-18.9
			c0-12.1-8.5-17.1-19.5-17.1c-3.2,0-5,0.3-5.9,0.5V130z"/>
		<path d="M848.5,118.5h-24.7v10.3h27.5v13.7h-44.5V81.8H850v13.7h-26.2v9.3h24.7V118.5z"/>
		<path d="M862.6,125.6c4,2,10.5,4.2,17.5,4.2c5.7,0,8.5-1.8,8.5-4.9c0-2.6-2.8-4.3-10.2-6.4c-10.3-2.9-18.9-8.2-18.9-18.7
			c0-11,9.9-19.1,25.6-19.1c8.3,0,13.9,1.4,18.5,3.4l-3.9,13.3c-2.9-1.2-8-3.1-14.9-3.1c-5,0-7.9,1.6-7.9,4.2
			c0,3.2,3.9,4.3,11.8,6.8c11.8,3.8,17.4,9.4,17.4,18.6c0,10.2-8,19.5-27.4,19.5c-8,0-15.8-2.2-19.7-4.1L862.6,125.6z"/>
		<path d="M438.9,189.8h17v46.4h26.2v14.2h-43.2V189.8z"/>
		<path d="M508,235.7l-3.9,14.8h-17.9l19.2-60.7h23.2l20.4,60.7h-18.9l-4.5-14.8H508z M523.1,223.3l-3.2-10.7
			c-1.1-3.4-2.3-7.8-3.4-11.3h-0.2c-1,3.5-1.9,7.9-2.9,11.4l-2.9,10.6H523.1z"/>
		<path d="M576.3,189.8h17v46.4h26.2v14.2h-43.2V189.8z"/>
		<path d="M645.4,235.7l-3.9,14.8h-17.9l19.2-60.7H666l20.4,60.7h-18.9l-4.5-14.8H645.4z M660.4,223.3l-3.2-10.7
			c-1.1-3.4-2.3-7.8-3.4-11.3h-0.2c-1,3.5-1.9,7.9-2.9,11.4l-2.9,10.6H660.4z"/>
		<path d="M753,247.3c-5.2,1.7-14.5,3.9-23.5,3.9c-13.3,0-22.4-3.2-28.3-8.9c-5.8-5.4-8.8-12.8-8.8-21c0-21,16.7-32,38.2-32
			c9.3,0,16.4,1.6,20,3.3l-3.6,13.3c-4-1.6-8.6-3-16.9-3c-10.6,0-19.8,5.2-19.8,16.8c0,10.8,8.1,17.9,19.8,17.9
			c2.8,0,5.4-0.3,6.3-0.6v-9.8H727v-13h26V247.3z"/>
		<path d="M780.7,189.8v32.9c0,9.5,3.5,15.7,11.2,15.7c7.7,0,11.3-5.7,11.3-15.7v-32.9h17v32.5c0,19.8-10.5,29.2-29,29.2
			c-17.4,0-27.5-8.8-27.5-29.7v-32H780.7z"/>
		<path d="M831.8,250.5v-60.7h21.3l10,17.5c3.9,6.8,7.7,15,10.7,22.9h0.3c-1.1-9-1.2-16.4-1.2-24.7v-15.8h15.8v60.7H870l-11-20.1
			c-3.9-7-8.2-15.2-11.7-23.5H847c0.4,9.2,0.5,18,0.5,27.2v16.4H831.8z"/>
		<path d="M917.8,235.7l-3.9,14.8H896l19.2-60.7h23.2l20.4,60.7H940l-4.5-14.8H917.8z M932.8,223.3l-3.2-10.7
			c-1.1-3.4-2.3-7.8-3.4-11.3H926c-1,3.5-1.9,7.9-2.9,11.4l-2.9,10.6H932.8z"/>
	</g>
</g>
</svg>
