<?xml version="1.0" encoding="utf-8"?>
<!-- Generator: Adobe Illustrator 23.0.5, SVG Export Plug-In . SVG Version: 6.00 Build 0)  -->
<svg version="1.1" id="Capa_2" xmlns="http://www.w3.org/2000/svg" xmlns:xlink="http://www.w3.org/1999/xlink" x="0px" y="0px"
	 viewBox="0 0 1000 320" style="enable-background:new 0 0 1000 320;" xml:space="preserve">
<style type="text/css">
	.st0{fill:#7C7C7D;}
</style>
<g id="Capa_2">
	<g>
		<g>
			<path class="st0" d="M157.9,234.7c-1.3-1.4-1.9-3.1-1.9-5.3V20.2c0-2.1,0.6-3.9,1.9-5.3c1.3-1.4,3-2.1,5.1-2.1h16
				c2.1,0,3.8,0.7,5.1,2.1c1.3,1.4,1.9,3.1,1.9,5.3v189.8H293c2.3,0,4.2,0.7,5.6,2.1c1.4,1.4,2.1,3.1,2.1,5.3v12.2
				c0,2.1-0.8,3.9-2.2,5.3c-1.5,1.4-3.3,2.1-5.4,2.1H163C160.9,236.8,159.2,236.1,157.9,234.7z"/>
			<path class="st0" d="M341.1,220.2c-12.7-13.2-19.5-30.8-20.3-52.8l-0.3-13.8l0.3-13.8c0.8-22,7.7-39.6,20.6-52.8
				c12.9-13.2,30.9-19.8,53.9-19.8c23,0,41,6.6,53.9,19.8c12.9,13.2,19.8,30.8,20.6,52.8c0.4,4.7,0.6,9.3,0.6,13.8
				s-0.2,9.1-0.6,13.8c-0.9,22-7.6,39.6-20.3,52.8c-12.7,13.2-30.8,19.8-54.2,19.8C371.9,240,353.8,233.4,341.1,220.2z M427.8,203
				c8-8.6,12.3-21.1,13-37.3c0.2-2.1,0.3-6.2,0.3-12.2c0-6-0.1-10-0.3-12.2c-0.6-16.2-5-28.6-13-37.3c-8-8.6-18.8-13-32.5-13
				c-13.7,0-24.5,4.3-32.5,13c-8,8.6-12.3,21.1-13,37.3l-0.3,12.2l0.3,12.2c0.6,16.2,5,28.6,13,37.3c8,8.6,18.8,13,32.5,13
				C409,216,419.8,211.7,427.8,203z"/>
			<path class="st0" d="M535.8,298.2c-10.7-6-18.2-12.8-22.6-20.5c-4.4-7.7-6.6-14.3-6.6-19.8c0-1.9,0.7-3.6,2.2-5
				c1.5-1.4,3.2-2.1,5.1-2.1h14.1c1.9,0,3.5,0.5,4.8,1.4c1.3,1,2.3,2.7,3.2,5.3c6,17.1,19.5,25.6,40.6,25.6c16,0,27.8-3.4,35.5-10.2
				c7.7-6.8,11.5-18.9,11.5-36.2v-22.1c-12.4,15.8-29.7,23.7-51.8,23.7c-22.6,0-39.5-7.3-50.7-21.8c-11.2-14.5-17.1-32.8-17.8-55
				l-0.3-9l0.3-8.6c0.6-22,6.6-40.3,17.8-54.9c11.2-14.6,28.1-21.9,50.7-21.9c22.4,0,39.9,8.2,52.5,24.6V78.1c0-2.1,0.7-3.9,2.1-5.4
				c1.4-1.5,3.1-2.2,5.3-2.2h13.8c2.1,0,3.9,0.8,5.3,2.2c1.4,1.5,2.1,3.3,2.1,5.4v155.2c0,49.3-24.9,73.9-74.6,73.9
				C560.7,307.2,546.5,304.2,535.8,298.2z M611.5,198.9c7.6-9.7,11.7-21.4,12.3-35c0.2-1.9,0.3-5.6,0.3-11.2c0-5.3-0.1-9-0.3-10.9
				c-0.6-13.6-4.8-25.3-12.3-35c-7.6-9.7-18.8-14.6-33.8-14.6c-15.4,0-26.5,4.9-33.4,14.6c-6.9,9.7-10.7,22.2-11.4,37.6l-0.3,8.3
				l0.3,8.6c0.6,15.4,4.4,27.9,11.4,37.6c6.9,9.7,18.1,14.6,33.4,14.6C592.7,213.4,603.9,208.6,611.5,198.9z"/>
			<path class="st0" d="M714.6,220.2c-12.7-13.2-19.5-30.8-20.3-52.8l-0.3-13.8l0.3-13.8c0.8-22,7.7-39.6,20.6-52.8
				c12.9-13.2,30.9-19.8,53.9-19.8c23,0,41,6.6,53.9,19.8c12.9,13.2,19.8,30.8,20.6,52.8c0.4,4.7,0.6,9.3,0.6,13.8
				s-0.2,9.1-0.6,13.8c-0.9,22-7.6,39.6-20.3,52.8c-12.7,13.2-30.8,19.8-54.2,19.8C745.3,240,727.2,233.4,714.6,220.2z M801.3,203
				c8-8.6,12.3-21.1,13-37.3c0.2-2.1,0.3-6.2,0.3-12.2c0-6-0.1-10-0.3-12.2c-0.6-16.2-5-28.6-13-37.3c-8-8.6-18.8-13-32.5-13
				c-13.7,0-24.5,4.3-32.5,13c-8,8.6-12.3,21.1-13,37.3l-0.3,12.2l0.3,12.2c0.6,16.2,5,28.6,13,37.3c8,8.6,18.8,13,32.5,13
				C782.4,216,793.3,211.7,801.3,203z"/>
		</g>
	</g>
</g>
</svg>
